<svg width="446" height="264" xmlns="http://www.w3.org/2000/svg" xmlns:xlink="http://www.w3.org/1999/xlink" overflow="hidden"><defs><clipPath id="clip0"><rect x="250" y="68" width="446" height="264"/></clipPath></defs><g clip-path="url(#clip0)" transform="translate(-250 -68)"><path d="M37.0506-166.379C37.0506-170.573 37.0506-174.767 32.3902-174.767 27.7297-174.767 27.7297-170.573 27.7297-166.379L27.7297 49.8669C27.7297 54.0614 27.7297 58.2557 32.3902 58.2557 37.0506 58.2557 37.0506 54.0614 37.0506 49.8669L37.0506-166.379Z" stroke="#000000" stroke-width="1.49289" fill="#FFFFFF" transform="matrix(1 0 0 1.00064 252.122 273.706)"/><path d="M90.8786-142.377C90.8786-150.766 91.3447-153.096 109.054-153.096L114.18-153.096 114.18-159.154C104.627-158.688 93.4419-158.688 83.6549-158.688 73.868-158.688 62.45-158.688 52.896-159.154L52.896-153.096 58.0225-153.096C75.7322-153.096 76.1982-150.766 76.1982-142.377L76.1982-34.2542C42.876-41.0119 42.41-83.888 42.41-96.0051 42.177-118.142 36.3514-129.561 21.9041-129.561L15.8455-129.561C12.1171-129.561 10.952-129.561 10.952-127.697 10.952-127.463 10.952-126.065 12.1171-126.065 18.6418-124.9 27.4966-123.501 27.7296-92.2768 27.9626-70.6057 35.6524-34.9533 76.1982-30.2929L76.1982-16.7776C76.1982-8.3888 75.7322-6.05858 58.0225-6.05858L52.896-6.05858 52.896 0C62.45-0.466044 73.868-0.466044 83.6549-0.466044 93.4419-0.466044 104.627-0.466044 114.18 0L114.18-6.05858 109.054-6.05858C91.3447-6.05858 90.8786-8.3888 90.8786-16.7776L90.8786-30.2929C139.347-35.4193 139.813-84.354 139.813-97.6363 139.813-108.355 142.143-123.501 154.027-125.832 156.358-126.298 156.824-126.298 156.824-127.697 156.824-129.561 155.659-129.561 151.697-129.561L145.639-129.561C130.259-129.561 125.365-117.443 125.133-93.4419 124.9-68.7415 118.376-40.0798 90.8786-34.2542L90.8786-142.377Z" stroke="#000000" stroke-width="1.79089" fill="#FFFFFF" transform="matrix(1 0 0 1.00064 316.85 273.706)"/><path d="M73.2316-45.0655 124.707-45.0655C127.427-45.0655 130.729-45.0655 130.729-48.3678 130.729-51.8642 127.621-51.8642 124.707-51.8642L73.2316-51.8642 73.2316-103.34C73.2316-106.059 73.2316-109.362 69.9294-109.362 66.4329-109.362 66.4329-106.254 66.4329-103.34L66.4329-51.8642 14.9571-51.8642C12.2376-51.8642 8.93542-51.8642 8.93542-48.5621 8.93542-45.0655 12.0434-45.0655 14.9571-45.0655L66.4329-45.0655 66.4329 6.41019C66.4329 9.12966 66.4329 12.4319 69.7351 12.4319 73.2316 12.4319 73.2316 9.32391 73.2316 6.41019L73.2316-45.0655Z" stroke="#000000" stroke-width="1.49289" fill="#FFFFFF" transform="matrix(1 0 0 1.00064 484.589 177.431)"/><path d="M63.6153-54.2943C64.7804-57.0906 64.7804-57.5566 64.7804-58.2557 64.7804-58.9548 64.7804-59.4209 63.6153-62.2171L22.8362-169.408C21.4381-173.369 20.04-174.767 17.4767-174.767 14.9135-174.767 12.8163-172.67 12.8163-170.106 12.8163-169.408 12.8163-168.941 13.9813-166.379L55.2264-58.2557 13.9813 49.4009C12.8163 51.9641 12.8163 52.4302 12.8163 53.5952 12.8163 56.1585 14.9135 58.2557 17.4767 58.2557 20.506 58.2557 21.4381 55.9255 22.3702 53.5952L63.6153-54.2943Z" stroke="#000000" stroke-width="1.49289" fill="#FFFFFF" transform="matrix(1 0 0 1.00064 629.099 273.706)"/></g></svg>