<svg width="149" height="88" xmlns="http://www.w3.org/2000/svg" xmlns:xlink="http://www.w3.org/1999/xlink" overflow="hidden"><defs><clipPath id="clip0"><rect x="550" y="310" width="149" height="88"/></clipPath></defs><g clip-path="url(#clip0)" transform="translate(-550 -310)"><path d="M12.3581-55.4951C12.3581-56.8939 12.3581-58.2931 10.8036-58.2931 9.24917-58.2931 9.24917-56.8939 9.24917-55.4951L9.24917 16.633C9.24917 18.032 9.24917 19.431 10.8036 19.431 12.3581 19.431 12.3581 18.032 12.3581 16.633L12.3581-55.4951Z" fill="#FFFFFF" transform="matrix(1.0016 0 0 1 550.709 378.569)"/><path d="M30.3123-47.4892C30.3123-50.2875 30.4677-51.0646 36.3747-51.0646L38.0845-51.0646 38.0845-53.0854C34.898-52.93 31.1672-52.93 27.9028-52.93 24.6384-52.93 20.83-52.93 17.6433-53.0854L17.6433-51.0646 19.3532-51.0646C25.2602-51.0646 25.4157-50.2875 25.4157-47.4892L25.4157-11.4254C14.3012-13.6794 14.1457-27.9806 14.1457-32.0222 14.068-39.406 12.1249-43.2146 7.30605-43.2146L5.28521-43.2146C4.04163-43.2146 3.65302-43.2146 3.65302-42.5928 3.65302-42.5149 3.65302-42.0485 4.04163-42.0485 6.2179-41.6599 9.17142-41.1935 9.24913-30.7786 9.32685-23.5503 11.8918-11.6586 25.4157-10.1041L25.4157-5.59611C25.4157-2.79806 25.2602-2.02082 19.3532-2.02082L17.6433-2.02082 17.6433 0C20.83-0.155447 24.6384-0.155447 27.9028-0.155447 31.1672-0.155447 34.898-0.155447 38.0845 0L38.0845-2.02082 36.3747-2.02082C30.4677-2.02082 30.3123-2.79806 30.3123-5.59611L30.3123-10.1041C46.4789-11.814 46.6342-28.136 46.6342-32.5663 46.6342-36.1416 47.4114-41.1935 51.3753-41.971 52.1529-42.1264 52.3082-42.1264 52.3082-42.5928 52.3082-43.2146 51.9196-43.2146 50.5982-43.2146L48.5775-43.2146C43.4474-43.2146 41.8153-39.1728 41.7378-31.1672 41.6599-22.9285 39.4838-13.3685 30.3123-11.4254L30.3123-47.4892Z" fill="#FFFFFF" transform="matrix(1.0016 0 0 1 572.333 378.569)"/><path d="M24.4262-15.0315 41.5956-15.0315C42.5028-15.0315 43.6043-15.0315 43.6043-16.1329 43.6043-17.2992 42.5677-17.2992 41.5956-17.2992L24.4262-17.2992 24.4262-34.4689C24.4262-35.3757 24.4262-36.4773 23.3247-36.4773 22.1585-36.4773 22.1585-35.4406 22.1585-34.4689L22.1585-17.2992 4.98889-17.2992C4.08183-17.2992 2.98038-17.2992 2.98038-16.1977 2.98038-15.0315 4.01705-15.0315 4.98889-15.0315L22.1585-15.0315 22.1585 2.1381C22.1585 3.04517 22.1585 4.14661 23.2599 4.14661 24.4262 4.14661 24.4262 3.10996 24.4262 2.1381L24.4262-15.0315Z" fill="#FFFFFF" transform="matrix(1.0016 0 0 1 628.372 346.477)"/><path d="M21.2187-18.1097C21.6073-19.0424 21.6073-19.1978 21.6073-19.431 21.6073-19.6642 21.6073-19.8196 21.2187-20.7523L7.61696-56.5054C7.15062-57.8268 6.68428-58.2931 5.82931-58.2931 4.97434-58.2931 4.27483-57.5935 4.27483-56.7384 4.27483-56.5054 4.27483-56.3499 4.66343-55.4951L18.4206-19.431 4.66343 16.4775C4.27483 17.3325 4.27483 17.4879 4.27483 17.8765 4.27483 18.7315 4.97434 19.431 5.82931 19.431 6.83972 19.431 7.15062 18.6538 7.46152 17.8765L21.2187-18.1097Z" fill="#FFFFFF" transform="matrix(1.0016 0 0 1 676.65 378.569)"/></g></svg>